<svg xmlns="http://www.w3.org/2000/svg" xmlns:xlink="http://www.w3.org/1999/xlink" version="1.1" width="1000" height="1000" viewBox="0 0 1000 1000" xml:space="preserve">
<desc>Created with Fabric.js 3.5.0</desc>
<defs>
</defs>
<rect x="0" y="0" width="100%" height="100%" fill="#ffc0cb"/>
<g transform="matrix(1.3636 0 0 1.3636 499.9879 499.9879)" id="596980">
<g style="" vector-effect="non-scaling-stroke">
		<g transform="matrix(0.1333 0 0 -0.1333 -0.0833 -0.0833)">
<path style="stroke: none; stroke-width: 1; stroke-dasharray: none; stroke-linecap: butt; stroke-dashoffset: 0; stroke-linejoin: miter; stroke-miterlimit: 4; is-custom-font: none; font-file-url: none; fill: rgb(0,0,0); fill-rule: nonzero; opacity: 1;" transform=" translate(-2500, -2500)" d="M 0 2500 l 0 -2500 l 2500 0 l 2500 0 l 0 2500 l 0 2500 l -2500 0 l -2500 0 l 0 -2500 z m 1800 1090 c 146 -11 218 -28 318 -75 c 177 -84 272 -245 272 -465 c 0 -103 -22 -197 -66 -280 l -36 -70 l -78 0 l -78 0 l 31 33 c 16 17 44 61 61 97 c 30 63 31 69 31 205 c 0 133 -1 143 -29 202 c -52 113 -153 185 -308 220 c -61 14 -136 17 -463 18 l -390 0 l -3 -387 l -2 -388 l -55 0 l -55 0 l 0 450 l 0 450 l 363 0 c 199 0 418 -5 487 -10 z m 1043 -432 c 87 -244 157 -446 157 -450 c 0 -5 -28 -8 -63 -8 l -62 0 l -154 438 c -85 240 -156 443 -159 450 c -3 9 13 12 60 12 l 65 0 l 156 -442 z m 1453 420 c -3 -13 -75 -214 -160 -448 l -154 -425 l -66 -3 l -66 -3 l 15 38 c 11 28 282 773 310 851 c 3 8 26 12 66 12 c 58 0 61 -1 55 -22 z m -2544 -995 c 24 -21 23 -48 -2 -73 c -21 -21 -21 -21 -1 -65 c 16 -36 17 -45 6 -45 c -8 0 -23 20 -34 45 c -16 36 -25 45 -45 45 c -24 0 -26 -3 -26 -45 c 0 -33 -4 -45 -15 -45 c -12 0 -15 18 -15 100 l 0 100 l 57 0 c 38 0 62 -5 75 -17 z m 226 -75 c 36 -102 37 -108 21 -108 c -5 0 -15 14 -20 30 c -10 27 -16 30 -50 30 c -35 0 -41 -3 -50 -30 c -6 -16 -18 -30 -26 -30 c -10 0 -13 5 -8 18 c 4 9 20 54 37 100 c 41 111 54 110 96 -10 z m 212 87 c 0 -2 16 -47 35 -100 c 25 -70 31 -95 21 -95 c -8 0 -19 14 -25 30 c -9 27 -14 30 -51 30 c -37 0 -42 -3 -51 -30 c -6 -16 -17 -30 -25 -30 c -11 0 -10 9 5 48 c 10 26 26 71 35 100 c 13 39 22 52 37 52 c 10 0 19 -2 19 -5 z m 335 -76 c 30 -90 33 -90 66 8 c 19 59 34 81 45 70 c 2 -2 -11 -46 -29 -98 c -46 -127 -59 -127 -103 4 c -24 72 -29 97 -19 97 c 8 0 24 -33 40 -81 z m 321 -14 c 19 -49 34 -93 34 -97 c 0 -19 -21 -5 -35 22 c -13 25 -22 30 -51 30 c -31 0 -37 -4 -47 -30 c -6 -16 -17 -30 -24 -30 c -7 0 -13 2 -13 4 c 0 4 39 115 61 174 c 17 44 41 21 75 -73 z m 199 18 l 50 -77 l 3 77 c 4 113 22 95 22 -23 c 0 -56 -4 -100 -9 -100 c -6 0 -34 35 -63 77 l -53 77 l -3 -77 c -2 -59 -6 -77 -17 -77 c -12 0 -15 19 -15 100 c 0 129 14 132 85 23 z m 251 6 l 49 -71 l 3 71 c 2 54 6 71 17 71 c 12 0 15 -19 15 -100 c 0 -78 -3 -100 -14 -100 c -7 0 -36 35 -65 78 l -51 77 l 0 -77 c 0 -63 -3 -78 -15 -78 c -12 0 -15 18 -15 100 c 0 124 9 127 76 29 z m -896 -59 c 0 -5 -16 -10 -35 -10 c -19 0 -35 5 -35 10 c 0 6 16 10 35 10 c 19 0 35 -4 35 -10 z m -1340 -620 l 0 -450 l -55 0 l -55 0 l 0 450 l 0 450 l 55 0 l 55 0 l 0 -450 z m 1071 138 c 73 -172 158 -374 190 -448 l 58 -135 l -66 -3 c -36 -2 -67 -2 -68 0 c -2 2 -88 204 -193 451 l -190 447 l 68 0 l 68 0 l 133 -312 z m 1019 309 c 0 -5 269 -760 272 -763 c 2 -1 66 170 143 382 l 140 384 l 63 0 c 34 0 62 -3 62 -8 c 0 -4 -72 -205 -160 -447 c -88 -242 -160 -441 -160 -442 c 0 -2 -39 -3 -88 -3 l -87 0 l -155 438 c -84 240 -156 443 -158 450 c -3 9 13 12 62 12 c 36 0 66 -1 66 -3 z" stroke-linecap="round"/>
</g>
		<g transform="matrix(0.1333 0 0 -0.1333 -107.2744 -6.0616)">
<path style="stroke: none; stroke-width: 1; stroke-dasharray: none; stroke-linecap: butt; stroke-dashoffset: 0; stroke-linejoin: miter; stroke-miterlimit: 4; is-custom-font: none; font-file-url: none; fill: rgb(0,0,0); fill-rule: nonzero; opacity: 1;" transform=" translate(-1695.4538, -2545.4538)" d="M 1650 2544 c 0 -34 1 -35 36 -32 c 71 6 74 68 4 68 c -39 0 -40 -1 -40 -36 z" stroke-linecap="round"/>
</g>
		<g transform="matrix(0.1333 0 0 -0.1333 -76.7255 -3.3349)">
<path style="stroke: none; stroke-width: 1; stroke-dasharray: none; stroke-linecap: butt; stroke-dashoffset: 0; stroke-linejoin: miter; stroke-miterlimit: 4; is-custom-font: none; font-file-url: none; fill: rgb(0,0,0); fill-rule: nonzero; opacity: 1;" transform=" translate(-1924.5664, -2525)" d="M 1909 2525 l -17 -45 l 35 0 c 31 0 34 2 27 23 c -11 36 -23 67 -26 67 c -2 0 -10 -20 -19 -45 z" stroke-linecap="round"/>
</g>
		<g transform="matrix(0.1333 0 0 -0.1333 -44.0448 -3.6683)">
<path style="stroke: none; stroke-width: 1; stroke-dasharray: none; stroke-linecap: butt; stroke-dashoffset: 0; stroke-linejoin: miter; stroke-miterlimit: 4; is-custom-font: none; font-file-url: none; fill: rgb(0,0,0); fill-rule: nonzero; opacity: 1;" transform=" translate(-2169.6713, -2527.5)" d="M 2156 2536 c -22 -52 -21 -56 14 -56 c 33 0 35 7 16 60 l -13 35 l -17 -39 z" stroke-linecap="round"/>
</g>
		<g transform="matrix(0.1333 0 0 -0.1333 39.3321 -3.3349)">
<path style="stroke: none; stroke-width: 1; stroke-dasharray: none; stroke-linecap: butt; stroke-dashoffset: 0; stroke-linejoin: miter; stroke-miterlimit: 4; is-custom-font: none; font-file-url: none; fill: rgb(0,0,0); fill-rule: nonzero; opacity: 1;" transform=" translate(-2795, -2525)" d="M 2777 2525 l -16 -45 l 34 0 l 34 0 l -16 45 c -8 25 -16 45 -18 45 c -2 0 -10 -20 -18 -45 z" stroke-linecap="round"/>
</g>
</g>
</g>
</svg>