<svg xmlns="http://www.w3.org/2000/svg" xmlns:svgjs="http://svgjs.com/svgjs" xmlns:xlink="http://www.w3.org/1999/xlink" width="288" height="288">
<svg xmlns="http://www.w3.org/2000/svg" width="288" height="288" data-name="Layer 1" viewBox="0 0 450 235">
<path fill="#fff" d="M334.5,54.48c2.07.21,3.24-.81,4.36-1.76,9.74-7.19,21.56-12.53,32.93-16.08,5.07,3.7-14,7.78-16.4,9.83A79,79,0,0,0,339.33,56c-3.77,2.26,3.16,9.89-3.89,9-2.19-.34-5.55-1.45-4.09-4.26,2.64-3.74-1.9-6.57-2.23-10.19-2.92-5.09-2.8-10.59-5-15.91-1.9,5.5-5.74,9.17-7.68,14.49,2.33,1.56,8.71-2.33,7.67,2.08-4.1,4.27-10.32,3.67-15.39,5-13.29,11.2-27.88,21.32-44.37,27.22-3.7.76-9,4.88-12,.71-.54-1.31-1.65-1.58-2.91-1.65-6.76-1.23-6.45,6.37-10.57,9.61a2.43,2.43,0,0,0-.92,1.76c-.76,4.09-5.27,6.12-8,8.85-4.77,3.64-9-3-12.39-5.82-6.3.83-8.46,8.8-14.72,8.35-3,.82-8,2.68-8,6.45-.34,8.57-.87,17-.64,25.62-4.86,13.54-5.74-22.69-6-25.45-10.71.15-20.73,5.46-30.79,8.77-9.52,7.59-17,17.77-26.36,25.68-11.47,11.91-25.2,21.28-37.92,31.5-1.37,2.64-2.21,1.9-4.83,1.39-12,7.37-26.77,6.81-39.14,1-2.32,5-1.55,11.09-1.91,16.53,0,1.53-1.08,2.28-2.32,2.81-5.64.81.6-16.83.44-20.3.75-5.45-4.37-8.91-5.66-14-3.6-11.22-3.49-23.39-1.16-34.8,3-21.07,10-43.3,24.8-59,23.54-18.93,30.19,12.77,21.51,29.29-.7-7.22,2.45-14.67.73-22.19C84.31,66.15,69,65.94,63.11,75c-17.88,23.94-32.74,68.74-16.93,96.47,5.45-20.28,7.72-41.74,11-62.61,1.51-3.9.84-17.85,4-18.78,4.69.24-4.35,26.06-2.08,30.62,2.46-5.14,10-34.9,16.65-32.4C82.9,105.72,82.72,124.8,87,143c8.11,1.81,15.35-6.07,22.53-9a8.59,8.59,0,0,0,5-3.13c4.54-2.65,9.82-3.47,14-6.8a2.66,2.66,0,0,0,3.22.38c7.6-3.81,17.82-.57,24.1-7.19,6.95-4.19,18.64-18.63,26.94-11a3,3,0,0,0,3.83,1.32c8.44-.61,5.17-12.1,6.62-18,.8-8.91,1.64-17.83,2.46-26.74.65-2.29-1.1-5,2.3-5.72,5.41,9.25,9.94,19.05,15.87,28.14L217,83.87c2.59,1.39,3.74,7.69,7.11,5.92,4.62-2.81,9.28-6,14.62-7.22a3.84,3.84,0,0,0,3.08-2.51c3.35-9.66,4.12-10.52,9.05-1,17.68-15.56,10.29-8.52,30.23-14.34,19.91-5,40.3-18.21,42.16-40.43.38-1.59.29-4.52,2.6-4.34,2.93,1.5.49,6.69,1.12,9.47C328.08,38.09,331.21,46.44,334.5,54.48Zm-270.14,104c4.63-4.59,11.23-6.46,16-11-8.47-3-22.76,4.3-24,13.4,2.94-1,5.32-1.55,8.12-2.5-3,3.82-7.1,5.81-11.84,4.11-.19,4.61-4.72,10.65-1.58,14.29,6.84,4.92,14.77,6.08,22.92,4.65,4.48-.85,12.31-1.17,13.89-6.05C83.24,135.29,85.39,154.2,64.36,158.48Zm84.82-34.28c-14.58-.07-28,5.45-40.49,12.55-5.16,4-11.09,7.61-17.63,8.73-7,1.22-.31,15,.46,19.55a1.44,1.44,0,0,1,.23,1.13c-.91,2.05.67,3.61,1,5.4,2,4.05,13.84-8,17.46-9.08C124.88,151.14,136.13,137.15,149.18,124.2ZM83.06,144.05c-1.39-17.17-3.89-34.63-9.12-51.05-11.68,19.5-15.8,42.41-20.2,64.49C60.75,148.65,71.31,141.2,83.06,144.05ZM209.74,95.88c4.34-4.6,1.65-8.77-1.24-13.19-3.72-5.36-5-13.1-10.28-16.91-.51,12.19-3.08,24.53-2.13,36.34C201.2,101.47,204.1,95.12,209.74,95.88ZM256,83.19c6.35,0,11.66-3.8,17.55-5.9,1.82-1.64,3.33-3.72,6-4,5.27-3.67,11.12-5.6,15.54-10.5-8.79,2.31-17,7.23-26.18,7.45-6.18.12-10.6,6.87-15.3,10.42Zm-16.6,2.09c-4,1.46-20.13,5.59-10.93,9.82-1.4,4.77-4.16-.71-7.5-.13,1.38,3.08,3.85,4.54,6.38,6.3C232.22,96.4,237.23,92,239.4,85.28Zm-59.35,24.81c-.11-8.62-13.69.48-14.9,4.63C170.49,114,175,111.74,180.05,110.09Zm66.2-31.59a1.7,1.7,0,0,0-1.07,2.24C246.7,80.29,246.94,79.92,246.25,78.5ZM219.14,92.4c0-1.32-.33-2-1.47-2.16C217.51,91.43,217.79,92.1,219.14,92.4Zm-4.63,3.48a1.37,1.37,0,0,0,.2-2.12C214,94.48,213.71,95,214.51,95.88Zm22.13-1.69c-.2,0-.25.11-.16.3C236.66,94.44,236.73,94.37,236.64,94.19Z" class="color000 svgShape"/>
</svg></svg>